<svg xmlns="http://www.w3.org/2000/svg" xmlns:xlink="http://www.w3.org/1999/xlink" width="500" zoomAndPan="magnify" viewBox="0 0 375 374.999991" height="500" preserveAspectRatio="xMidYMid meet" version="1.0"><defs><clipPath id="864d302a1d"><path d="M 219 86 L 228 86 L 228 197 L 219 197 Z M 219 86 " clip-rule="nonzero"/></clipPath><clipPath id="066e25f541"><path d="M 166.855469 21.28125 L 342.363281 123.785156 L 208.085938 353.695312 L 32.578125 251.191406 Z M 166.855469 21.28125 " clip-rule="nonzero"/></clipPath><clipPath id="2dcee51d27"><path d="M 166.855469 21.28125 L 342.363281 123.785156 L 208.085938 353.695312 L 32.578125 251.191406 Z M 166.855469 21.28125 " clip-rule="nonzero"/></clipPath><clipPath id="c8e14b8f7c"><path d="M 166.855469 21.28125 L 342.363281 123.785156 L 208.085938 353.695312 L 32.578125 251.191406 Z M 166.855469 21.28125 " clip-rule="nonzero"/></clipPath><clipPath id="c2b08cba29"><path d="M 34 247 L 137 247 L 137 286 L 34 286 Z M 34 247 " clip-rule="nonzero"/></clipPath><clipPath id="022ca60de9"><path d="M 166.855469 21.28125 L 342.363281 123.785156 L 208.085938 353.695312 L 32.578125 251.191406 Z M 166.855469 21.28125 " clip-rule="nonzero"/></clipPath><clipPath id="42346a0e95"><path d="M 166.855469 21.28125 L 342.363281 123.785156 L 208.085938 353.695312 L 32.578125 251.191406 Z M 166.855469 21.28125 " clip-rule="nonzero"/></clipPath><clipPath id="9626272906"><path d="M 166.855469 21.28125 L 342.363281 123.785156 L 208.085938 353.695312 L 32.578125 251.191406 Z M 166.855469 21.28125 " clip-rule="nonzero"/></clipPath><clipPath id="d082e05c9d"><path d="M 105 152 L 178 152 L 178 225 L 105 225 Z M 105 152 " clip-rule="nonzero"/></clipPath><clipPath id="ad0d345a19"><path d="M 166.855469 21.28125 L 342.363281 123.785156 L 208.085938 353.695312 L 32.578125 251.191406 Z M 166.855469 21.28125 " clip-rule="nonzero"/></clipPath><clipPath id="362b4cd1c0"><path d="M 166.855469 21.28125 L 342.363281 123.785156 L 208.085938 353.695312 L 32.578125 251.191406 Z M 166.855469 21.28125 " clip-rule="nonzero"/></clipPath><clipPath id="6e8188d4cc"><path d="M 166.855469 21.28125 L 342.363281 123.785156 L 208.085938 353.695312 L 32.578125 251.191406 Z M 166.855469 21.28125 " clip-rule="nonzero"/></clipPath><clipPath id="83c995fc3d"><path d="M 286 121 L 341 121 L 341 209 L 286 209 Z M 286 121 " clip-rule="nonzero"/></clipPath><clipPath id="552cc73d3c"><path d="M 166.855469 21.28125 L 342.363281 123.785156 L 208.085938 353.695312 L 32.578125 251.191406 Z M 166.855469 21.28125 " clip-rule="nonzero"/></clipPath><clipPath id="3b7b5f2a9b"><path d="M 166.855469 21.28125 L 342.363281 123.785156 L 208.085938 353.695312 L 32.578125 251.191406 Z M 166.855469 21.28125 " clip-rule="nonzero"/></clipPath><clipPath id="2811f202ab"><path d="M 166.855469 21.28125 L 342.363281 123.785156 L 208.085938 353.695312 L 32.578125 251.191406 Z M 166.855469 21.28125 " clip-rule="nonzero"/></clipPath></defs><g clip-path="url(#864d302a1d)"><g clip-path="url(#066e25f541)"><g clip-path="url(#2dcee51d27)"><g clip-path="url(#c8e14b8f7c)"><path fill="#ffba57" d="M 221.484375 87.957031 C 221.910156 86.816406 223.285156 86.203125 224.449219 86.445312 C 225.691406 86.714844 226.625 87.3125 226.992188 88.640625 C 227.308594 89.761719 227.371094 90.910156 227.347656 92.050781 C 227.285156 95.578125 227.144531 99.105469 227.050781 102.632812 C 226.925781 107.484375 226.835938 112.34375 226.710938 117.199219 C 226.617188 120.859375 226.460938 124.527344 226.382812 128.191406 C 226.308594 131.535156 226.300781 134.875 226.28125 138.21875 C 226.253906 141.925781 226.238281 145.632812 226.230469 149.347656 C 226.226562 153.511719 226.234375 157.679688 226.226562 161.84375 C 226.226562 165.914062 226.222656 169.992188 226.230469 174.066406 C 226.230469 177.40625 226.257812 180.753906 226.234375 184.09375 C 226.210938 187.207031 226.144531 190.320312 226.074219 193.433594 C 226.023438 195.742188 224.363281 196.363281 222.976562 196.390625 C 221.515625 196.421875 220.3125 195.074219 220.15625 193.394531 C 219.585938 187.097656 219.492188 180.785156 219.527344 174.460938 C 219.550781 170.019531 219.457031 165.582031 219.457031 161.136719 C 219.453125 156.878906 219.5 152.617188 219.519531 148.363281 C 219.527344 144.011719 219.511719 139.667969 219.539062 135.3125 C 219.558594 132.566406 219.621094 129.820312 219.6875 127.070312 C 219.804688 121.984375 219.929688 116.898438 220.066406 111.816406 C 220.164062 108.199219 220.285156 104.582031 220.394531 100.960938 C 220.496094 97.570312 220.589844 94.183594 220.699219 90.792969 C 220.730469 89.773438 220.898438 88.78125 221.496094 87.953125 Z M 221.484375 87.957031 " fill-opacity="1" fill-rule="nonzero"/></g></g></g></g><g clip-path="url(#c2b08cba29)"><g clip-path="url(#022ca60de9)"><g clip-path="url(#42346a0e95)"><g clip-path="url(#9626272906)"><path fill="#ffba57" d="M 136.175781 283.71875 C 135.433594 284.953125 133.988281 285.457031 132.453125 284.933594 C 130.554688 284.28125 128.695312 283.527344 126.871094 282.695312 C 125.214844 281.9375 123.511719 281.28125 121.824219 280.59375 C 120.851562 280.203125 119.921875 279.699219 118.976562 279.261719 C 115.503906 277.628906 111.949219 276.195312 108.386719 274.816406 C 104.769531 273.414062 101.0625 272.265625 97.394531 271.019531 C 88.488281 267.976562 79.421875 265.433594 70.394531 262.8125 C 62.234375 260.441406 54.054688 258.140625 45.859375 255.871094 C 43.214844 255.140625 40.578125 254.414062 37.964844 253.570312 C 37.265625 253.347656 36.609375 253.039062 35.917969 252.796875 C 34.632812 252.34375 33.792969 250.515625 34.152344 249.265625 C 34.597656 247.710938 36.085938 246.808594 37.808594 247.046875 C 39.898438 247.332031 41.957031 247.800781 43.972656 248.375 C 53.824219 251.152344 63.671875 253.953125 73.503906 256.769531 C 79.347656 258.441406 85.199219 260.082031 90.996094 261.886719 C 96.617188 263.636719 102.191406 265.523438 107.75 267.457031 C 111.066406 268.609375 114.359375 269.847656 117.5625 271.261719 C 120.441406 272.53125 123.339844 273.761719 126.152344 275.1875 C 128.632812 276.445312 131.078125 277.792969 133.609375 278.953125 C 133.9375 279.105469 134.296875 279.179688 134.644531 279.308594 C 136.605469 280.042969 137.167969 282.53125 136.167969 283.722656 Z M 136.175781 283.71875 " fill-opacity="1" fill-rule="nonzero"/></g></g></g></g><g clip-path="url(#d082e05c9d)"><g clip-path="url(#ad0d345a19)"><g clip-path="url(#362b4cd1c0)"><g clip-path="url(#6e8188d4cc)"><path fill="#ffba57" d="M 105.925781 154.113281 C 106.558594 152.617188 108.375 152.003906 110.4375 153.085938 C 111.65625 153.726562 112.609375 154.75 113.640625 155.640625 C 117.160156 158.6875 120.640625 161.769531 124.113281 164.863281 C 128.652344 168.902344 133.023438 173.105469 137.25 177.476562 C 142.648438 183.066406 147.949219 188.75 153.210938 194.476562 C 156.796875 198.382812 160.429688 202.253906 164.039062 206.136719 C 167.992188 210.390625 171.953125 214.636719 175.894531 218.898438 C 176.445312 219.496094 177.0625 220.035156 177.28125 220.902344 C 177.667969 222.449219 177.445312 223.496094 176.285156 224.15625 C 174.761719 225.027344 173.625 225 172.351562 223.917969 C 171.625 223.300781 170.96875 222.585938 170.265625 221.941406 C 165.230469 217.347656 160.617188 212.339844 156.011719 207.320312 C 151.070312 201.925781 146.09375 196.558594 141.085938 191.222656 C 135.894531 185.691406 130.699219 180.167969 125.183594 174.953125 C 121.371094 171.347656 117.484375 167.828125 113.503906 164.40625 C 111.535156 162.710938 109.542969 161.046875 107.59375 159.320312 C 107.011719 158.808594 106.472656 158.214844 106.058594 157.574219 C 105.339844 156.46875 105.109375 155.289062 105.9375 154.109375 Z M 105.925781 154.113281 " fill-opacity="1" fill-rule="nonzero"/></g></g></g></g><g clip-path="url(#83c995fc3d)"><g clip-path="url(#552cc73d3c)"><g clip-path="url(#3b7b5f2a9b)"><g clip-path="url(#2811f202ab)"><path fill="#ffba57" d="M 339.328125 128.777344 C 336.957031 131.835938 335.386719 135.402344 333.195312 138.566406 C 331.617188 140.835938 330.257812 143.21875 328.867188 145.585938 C 321.53125 158.109375 314.101562 170.59375 306.964844 183.226562 C 304.121094 188.257812 301.335938 193.332031 298.328125 198.261719 C 296.671875 200.976562 295.058594 203.769531 292.851562 206.125 C 292 207.03125 291.15625 207.890625 289.835938 208.136719 C 288.648438 208.351562 287.75 207.984375 287.082031 207.042969 C 286.4375 206.136719 286.144531 205.09375 286.75 204.082031 C 287.355469 203.070312 288.085938 202.125 288.851562 201.214844 C 289.242188 200.75 289.574219 200.265625 289.871094 199.753906 C 293.554688 193.449219 297.425781 187.234375 300.867188 180.804688 C 304.46875 174.074219 308.632812 167.6875 312.164062 160.9375 C 314.886719 155.722656 317.832031 150.636719 320.933594 145.660156 C 323.773438 141.101562 326.335938 136.371094 329.28125 131.894531 C 330.71875 129.707031 332.015625 127.445312 333.421875 125.246094 C 334.082031 124.207031 334.898438 123.265625 335.792969 122.414062 C 336.714844 121.527344 338.273438 121.40625 339.382812 122.035156 C 340.476562 122.660156 341.039062 123.90625 340.742188 125.21875 C 340.460938 126.472656 340.042969 127.679688 339.332031 128.773438 Z M 339.328125 128.777344 " fill-opacity="1" fill-rule="nonzero"/></g></g></g></g></svg>