<?xml version="1.0" standalone="no"?>
<!DOCTYPE svg PUBLIC "-//W3C//DTD SVG 20010904//EN"
 "http://www.w3.org/TR/2001/REC-SVG-20010904/DTD/svg10.dtd">
<svg version="1.0" xmlns="http://www.w3.org/2000/svg"
 width="500.000000pt" height="500.000000pt" viewBox="0 0 500.000000 500.000000"
 preserveAspectRatio="xMidYMid meet">
<metadata>
Created by potrace 1.14, written by Peter Selinger 2001-2017
</metadata>
<g transform="translate(0.000000,500.000000) scale(0.100000,-0.100000)"
fill="#000000" stroke="none">
<path d="M1090 4451 c-66 -22 -114 -60 -153 -122 -8 -15 -57 -145 -107 -290
-51 -145 -105 -300 -120 -344 -56 -157 -242 -691 -267 -765 -41 -124 -30 -202
38 -269 113 -113 313 -83 383 58 13 25 42 102 66 171 24 69 46 129 50 133 4 5
36 -1 71 -13 155 -51 389 -9 502 89 l33 30 1 -92 c0 -88 21 -170 53 -210 73
-91 154 -156 230 -182 3 -1 13 -5 23 -8 41 -16 55 -20 115 -32 65 -12 235 -13
307 0 194 33 397 165 505 327 l40 60 1 -38 c2 -140 60 -243 174 -310 103 -60
244 -67 374 -19 62 23 78 25 94 15 98 -61 268 -61 387 0 l38 20 56 -26 c71
-33 85 -35 186 -39 169 -7 305 47 419 164 84 88 146 197 196 349 61 184 -2
294 -169 294 -74 0 -133 -25 -169 -74 -14 -18 -42 -76 -62 -128 -37 -94 -76
-160 -105 -178 -10 -6 17 83 73 247 122 350 125 360 122 425 -5 88 -59 157
-147 185 -55 18 -140 11 -192 -15 -42 -21 -47 -22 -93 -8 -95 29 -267 13 -355
-32 -47 -24 -122 -106 -148 -161 -12 -26 -38 -90 -56 -142 -38 -106 -43 -115
-42 -74 1 31 -37 115 -68 152 -31 36 -109 90 -184 127 -47 23 -70 40 -70 51
-1 35 -41 106 -81 144 -95 90 -248 88 -342 -3 -59 -58 -88 -132 -89 -226 0
-40 -2 -44 -12 -27 -21 38 -124 133 -166 155 -140 71 -350 66 -489 -12 -45
-25 -53 -27 -47 -11 98 251 2 479 -239 573 -51 20 -80 24 -187 25 -100 1 -131
5 -145 17 -10 8 -29 21 -41 28 -29 15 -158 22 -192 11z m332 -495 c4 -6 8 -21
8 -34 0 -20 -77 -273 -100 -327 -4 -11 -17 -42 -27 -70 -23 -61 -67 -90 -114
-73 -16 5 -30 14 -30 19 -1 5 -2 15 -3 22 -3 18 132 415 149 440 27 39 97 52
117 23z m771 -506 c-5 -19 -23 -29 -23 -12 0 7 20 32 26 32 1 0 0 -9 -3 -20z
m1728 -61 c-5 -13 -10 -19 -10 -12 -1 15 10 45 15 40 3 -2 0 -15 -5 -28z m-42
-138 c-18 -55 -35 -99 -37 -97 -2 3 11 50 29 105 18 56 34 99 36 97 2 -2 -11
-49 -28 -105z m-48 -142 c-5 -13 -10 -19 -10 -12 -1 15 10 45 15 40 3 -2 0
-15 -5 -28z m-1611 -109 c0 -5 -5 -10 -11 -10 -5 0 -7 5 -4 10 3 6 8 10 11 10
2 0 4 -4 4 -10z m-37 -7 c-7 -2 -19 -2 -25 0 -7 3 -2 5 12 5 14 0 19 -2 13 -5z"/>
<path d="M1090 2441 c-74 -23 -136 -79 -166 -149 -9 -20 -49 -134 -90 -252
-42 -118 -88 -251 -104 -295 -16 -44 -35 -100 -44 -125 -8 -25 -42 -124 -76
-220 -171 -486 -193 -555 -192 -601 1 -59 21 -106 62 -147 53 -53 86 -66 170
-66 148 0 197 52 279 290 37 107 57 152 65 145 49 -38 227 -54 344 -31 65 13
192 72 218 101 9 10 20 19 23 19 4 0 7 -40 7 -88 0 -77 4 -97 31 -154 38 -82
87 -136 166 -186 219 -138 546 -132 798 15 99 57 216 172 260 253 l18 35 1
-50 c2 -69 6 -89 34 -148 63 -134 198 -209 364 -203 72 3 183 33 205 55 5 5
22 1 43 -11 91 -54 236 -59 345 -13 35 15 71 27 79 27 8 0 44 -12 79 -27 51
-22 83 -28 155 -30 299 -9 502 157 620 509 45 135 27 229 -54 275 -52 29 -150
31 -212 3 -60 -26 -90 -66 -127 -166 -17 -47 -42 -105 -57 -128 -28 -46 -64
-85 -64 -70 0 5 36 114 81 243 118 341 127 372 125 426 -7 130 -112 214 -252
200 -30 -3 -73 -15 -95 -26 -32 -17 -44 -19 -66 -10 -16 6 -71 13 -123 16
-121 7 -204 -12 -280 -66 -73 -51 -119 -121 -166 -252 -38 -107 -54 -132 -54
-85 0 38 -48 118 -100 166 -43 40 -180 120 -206 120 -5 0 -15 23 -21 51 -32
135 -177 215 -316 175 -107 -31 -187 -144 -188 -269 -1 -54 -3 -59 -14 -42
-62 91 -122 140 -216 177 -69 27 -224 36 -300 18 -30 -7 -54 -12 -54 -10 0 1
-31 -14 -69 -34 -52 -28 -66 -32 -61 -19 5 10 16 53 25 96 62 294 -158 523
-485 504 -84 -4 -92 -3 -118 19 -45 38 -160 55 -227 35z m337 -541 c-7 -57
-121 -393 -144 -425 -31 -41 -85 -52 -119 -24 -18 15 -13 39 61 259 70 207 86
237 138 251 12 3 33 1 45 -5 21 -9 23 -15 19 -56z m767 -465 c-4 -8 -10 -15
-15 -15 -4 0 -6 7 -3 15 4 8 10 15 15 15 4 0 6 -7 3 -15z m1725 -69 c-6 -21
-12 -36 -14 -34 -3 2 0 21 6 42 6 21 12 36 14 34 3 -2 0 -21 -6 -42z m-29 -83
c-11 -17 -11 -17 -6 0 3 10 6 24 7 30 0 9 2 9 5 0 3 -7 0 -20 -6 -30z m-25
-88 c-10 -30 -20 -54 -22 -52 -2 3 4 29 14 60 9 31 19 55 21 52 2 -2 -4 -29
-13 -60z m-34 -96 c-5 -13 -10 -19 -10 -12 -1 15 10 45 15 40 3 -2 0 -15 -5
-28z m-20 -56 c-12 -20 -14 -14 -5 12 4 9 9 14 11 11 3 -2 0 -13 -6 -23z"/>
</g>
</svg>
